<?xml version="1.0" standalone="no"?>
<!DOCTYPE svg PUBLIC "-//W3C//DTD SVG 20010904//EN"
 "http://www.w3.org/TR/2001/REC-SVG-20010904/DTD/svg10.dtd">
<svg version="1.0" xmlns="http://www.w3.org/2000/svg"
 width="513.000000pt" height="513.000000pt" viewBox="0 0 513.000000 513.000000"
 preserveAspectRatio="xMidYMid meet">
<metadata>
Created by potrace 1.11, written by Peter Selinger 2001-2013
</metadata>
<g transform="translate(0.000000,513.000000) scale(0.100000,-0.100000)"
fill="#000000" stroke="none">
<path d="M2390 5109 c-112 -10 -203 -19 -225 -23 -11 -2 -60 -11 -110 -20
-371 -69 -780 -260 -1095 -512 -108 -87 -295 -274 -383 -384 -280 -348 -453
-733 -541 -1205 -48 -258 -38 -710 21 -965 4 -14 7 -32 9 -40 6 -33 28 -110
59 -210 243 -781 862 -1409 1641 -1664 92 -30 83 -28 227 -59 70 -16 107 -20
107 -13 0 7 3 7 8 1 9 -12 72 -15 72 -3 0 4 24 5 53 1 28 -5 169 -8 312 -8
300 0 353 5 559 51 72 15 112 20 116 14 12 -20 325 94 455 165 22 12 67 37
100 55 477 262 897 737 1109 1257 98 239 158 479 184 728 9 91 9 417 -1 521
-15 168 -68 409 -130 589 -269 787 -909 1399 -1703 1630 -91 27 -209 54 -254
60 -63 8 -126 17 -131 21 -6 3 -216 15 -319 17 -36 1 -99 -1 -140 -4z"/>
</g>
</svg>
